<svg id="Layer_1" data-name="Layer 1" xmlns="http://www.w3.org/2000/svg" viewBox="0 0 340.79 129.79"><defs><style>.cls-1{fill:#43b02a;}</style></defs><path class="cls-1" d="M234,10l-.11,2.87c-.17,4-.35,8.51,1.79,10.61a4.79,4.79,0,0,0,3.42,1.17C245.62,24.67,251,19.9,251,14c0-5.05-5.29-9.22-11.73-9.22A5.33,5.33,0,0,0,234,10M235,34.86v14.3c.2.42,3.93,1.86,6.87,1.86,5.23,0,10.82-2.89,10.82-7.71,0-6.7-6-12.17-13.44-12.17A4.05,4.05,0,0,0,235,34.86M207.54,58.41c11-9.64,17.37-21.77,17.58-31.51.15-11.34-3.79-19.3-13.63-26.86h40.85c5.64.24,11.3,3.31,11.29,8.23v8.88c0,4.73-8.52,9.75-8.52,9.75a69.73,69.73,0,0,1,6.78,5.67c3.15,3.43,4.54,6.27,4.54,10.68,0,7.86-8.46,15.16-15.28,15.17Z"/><path class="cls-1" d="M187.53,51.33l-.22-.31.42,0c13.55-2.32,18.47-14,18.47-24.09,0-8.24-1.77-22.17-13.39-22.17-4.36,0-6.56,4-6.54,11.75l0,1.74c0,3.18-.08,5.53,1.69,8.59l.22.29H174.29l.19-.29c2.7-5.1,3.94-8.5,3.94-14.35,0-5.42-3-7.68-7.9-12L170.1,0l11.47,0c6.21,0,11.63,0,19.18,0,13.5,1,19.24,16.37,18.91,26.58-.48,14.48-16.51,31.79-22.6,31.79-4.48,0-9.33-6.81-9.53-7.08"/><path class="cls-1" d="M147.68,14.23c0,4.55,1.65,7.28,4.38,11.27,1-.8,8.18-6.41,8.18-12,0-3.3-2.23-6.72-6-6.72-4.27,0-6.6,3.87-6.6,7.5m24.19,44.18c-7.65,0-13.21-9.47-16.05-15.67-2.56-5.58-8.45-7.88-12.84-9.89a52.29,52.29,0,0,0,7.88-5.51l-13.6-.05V7.52c-3.88,2.72-7.08,5.72-9.62,7.44-1-6.52-7.82-10.43-15.29-10.43-14.49,0-23.76,12.38-23.76,25.08,0,13,10.53,24.46,25.45,25.1,12.44.43,31.75-10.44,36.55-10.44a17.94,17.94,0,0,1,2.5,2.95c2.5,4.38,4.15,7.36,8,11.19H99.32c-16,0-25-14.28-25-28.31A30,30,0,0,1,104.39,0h18.17c6.11,0,9.82,1.41,14.7,4.51V0h25a13.9,13.9,0,0,1,11.91,13.7c0,5.41-1.76,9-6.29,12.66C165.7,28.2,162.25,31,162.25,31c.06,2.64,19.26,21,26.6,27.37Z"/><polyline class="cls-1" points="340.78 92.4 283.18 92.41 283.18 82.79 340.77 82.79"/><polyline class="cls-1" points="340.79 129.79 283.18 129.79 283.18 120.2 340.77 120.2"/><polyline class="cls-1" points="340.78 111.09 283.18 111.09 283.18 101.5 340.77 101.5"/><polyline class="cls-1" points="57.6 92.4 0 92.41 0 82.79 57.59 82.79"/><polyline class="cls-1" points="57.61 129.79 0 129.79 0 120.2 57.59 120.2"/><polyline class="cls-1" points="57.6 111.09 0 111.09 0 101.5 57.59 101.5"/><path class="cls-1" d="M108.06,99.1h-6.69v7.34h6c2.63,0,4.55-1.44,4.55-3.52a3.9,3.9,0,0,0-3.83-3.82"/><path class="cls-1" d="M111.16,89c0-1.94-1.8-3.28-4.21-3.31h-5.57v7l5.21-.11c2.78,0,4.57-1,4.57-3.55"/><polygon class="cls-1" points="145.46 85.76 140.44 99.84 150.36 99.84 145.64 85.76 145.46 85.76"/><path class="cls-1" d="M236.89,113,224.64,95h-.08V113h-10.3V79.14h10.3V94h.1l11.76-14.87h12.16L235.8,94.07l13.89,19Zm-30,0H192.72L180.11,87H180v26h-9.3V79.14h14.44l12.4,25.23.12-.09V79.14h9.21Zm-51.58,0-2.44-6.66h-15L135.41,113H125.12l14.64-33.9h12.53L166.93,113Zm-46.84,0H91.1V79.14h17.71c7,0,12.89,2.91,12.89,8.83,0,4.19-3.87,6.72-8,7.44v.12c4.92.6,8.92,3.45,8.93,8.27,0,9.83-13.79,9.24-14.12,9.24M74.35,129.79H266.44V62.29H74.35Z"/></svg>